<svg width="154" height="44" viewBox="0 0 154 44" fill="none" xmlns="http://www.w3.org/2000/svg">
<rect width="154" height="44" rx="16" fill="#E7EEFF"/>
<path d="M30.383 18H31.444C32.304 18 33 18.696 33 19.556V29.445C33 30.304 32.304 31 31.444 31H20.556C19.696 31 19 30.304 19 29.444V28" stroke="#155EEF" stroke-width="1.5" stroke-linecap="round" stroke-linejoin="round"/>
<path fill-rule="evenodd" clip-rule="evenodd" d="M16.001 28H27.313C27.982 28 28.606 27.666 28.977 27.109L29.711 26.007C30.149 25.35 30.383 24.578 30.383 23.788V16C30.383 14.895 29.488 14 28.383 14H18.383C17.278 14 16.383 14.895 16.383 16V23.056C16.383 23.677 16.238 24.289 15.961 24.845L15.107 26.553C14.774 27.218 15.258 28 16.001 28Z" stroke="#155EEF" stroke-width="1.5" stroke-linecap="round" stroke-linejoin="round"/>
<path d="M20.38 13V15" stroke="#155EEF" stroke-width="1.5" stroke-linecap="round" stroke-linejoin="round"/>
<path d="M26.38 13V15" stroke="#155EEF" stroke-width="1.5" stroke-linecap="round" stroke-linejoin="round"/>
<path d="M20.19 19H26.19" stroke="#155EEF" stroke-width="1.5" stroke-linecap="round" stroke-linejoin="round"/>
<path d="M20.19 23H26.19" stroke="#155EEF" stroke-width="1.5" stroke-linecap="round" stroke-linejoin="round"/>
<path d="M49.2045 28V26.9773L53.0455 22.7727C53.4962 22.2803 53.8674 21.8523 54.1591 21.4886C54.4508 21.1212 54.6667 20.7765 54.8068 20.4545C54.9508 20.1288 55.0227 19.7879 55.0227 19.4318C55.0227 19.0227 54.9242 18.6686 54.7273 18.3693C54.5341 18.0701 54.2689 17.839 53.9318 17.6761C53.5947 17.5133 53.2159 17.4318 52.7955 17.4318C52.3485 17.4318 51.9583 17.5246 51.625 17.7102C51.2955 17.892 51.0398 18.1477 50.858 18.4773C50.6799 18.8068 50.5909 19.1932 50.5909 19.6364H49.25C49.25 18.9545 49.4072 18.3561 49.7216 17.8409C50.036 17.3258 50.464 16.9242 51.0057 16.6364C51.5511 16.3485 52.1629 16.2045 52.8409 16.2045C53.5227 16.2045 54.1269 16.3485 54.6534 16.6364C55.1799 16.9242 55.5928 17.3125 55.892 17.8011C56.1913 18.2898 56.3409 18.8333 56.3409 19.4318C56.3409 19.8598 56.2633 20.2784 56.108 20.6875C55.9564 21.0928 55.6913 21.5455 55.3125 22.0455C54.9375 22.5417 54.4167 23.1477 53.75 23.8636L51.1364 26.6591V26.75H56.5455V28H49.2045ZM58.3693 25.6136V24.4545L63.483 16.3636H64.3239V18.1591H63.7557L59.892 24.2727V24.3636H66.7784V25.6136H58.3693ZM63.8466 28V25.2614V24.7216V16.3636H65.1875V28H63.8466ZM73.9304 21.5568V22.8068H68.8395V21.5568H73.9304ZM80.767 28V26.9773L84.608 22.7727C85.0587 22.2803 85.4299 21.8523 85.7216 21.4886C86.0133 21.1212 86.2292 20.7765 86.3693 20.4545C86.5133 20.1288 86.5852 19.7879 86.5852 19.4318C86.5852 19.0227 86.4867 18.6686 86.2898 18.3693C86.0966 18.0701 85.8314 17.839 85.4943 17.6761C85.1572 17.5133 84.7784 17.4318 84.358 17.4318C83.911 17.4318 83.5208 17.5246 83.1875 17.7102C82.858 17.892 82.6023 18.1477 82.4205 18.4773C82.2424 18.8068 82.1534 19.1932 82.1534 19.6364H80.8125C80.8125 18.9545 80.9697 18.3561 81.2841 17.8409C81.5985 17.3258 82.0265 16.9242 82.5682 16.6364C83.1136 16.3485 83.7254 16.2045 84.4034 16.2045C85.0852 16.2045 85.6894 16.3485 86.2159 16.6364C86.7424 16.9242 87.1553 17.3125 87.4545 17.8011C87.7538 18.2898 87.9034 18.8333 87.9034 19.4318C87.9034 19.8598 87.8258 20.2784 87.6705 20.6875C87.5189 21.0928 87.2538 21.5455 86.875 22.0455C86.5 22.5417 85.9792 23.1477 85.3125 23.8636L82.6989 26.6591V26.75H88.108V28H80.767ZM94.1818 28.1591C93.4015 28.1591 92.7121 28.0208 92.1136 27.7443C91.5189 27.464 91.0549 27.0795 90.7216 26.5909C90.3883 26.0985 90.2235 25.5379 90.2273 24.9091C90.2235 24.4167 90.3201 23.9621 90.517 23.5455C90.714 23.125 90.983 22.7746 91.3239 22.4943C91.6686 22.2102 92.053 22.0303 92.4773 21.9545V21.8864C91.9205 21.7424 91.4773 21.4299 91.1477 20.9489C90.8182 20.464 90.6553 19.9129 90.6591 19.2955C90.6553 18.7045 90.8049 18.1761 91.108 17.7102C91.411 17.2443 91.8277 16.8769 92.358 16.608C92.892 16.339 93.5 16.2045 94.1818 16.2045C94.8561 16.2045 95.4583 16.339 95.9886 16.608C96.5189 16.8769 96.9356 17.2443 97.2386 17.7102C97.5455 18.1761 97.7008 18.7045 97.7045 19.2955C97.7008 19.9129 97.5322 20.464 97.1989 20.9489C96.8693 21.4299 96.4318 21.7424 95.8864 21.8864V21.9545C96.3068 22.0303 96.6856 22.2102 97.0227 22.4943C97.3598 22.7746 97.6288 23.125 97.8295 23.5455C98.0303 23.9621 98.1326 24.4167 98.1364 24.9091C98.1326 25.5379 97.9621 26.0985 97.625 26.5909C97.2917 27.0795 96.8277 27.464 96.233 27.7443C95.642 28.0208 94.9583 28.1591 94.1818 28.1591ZM94.1818 26.9091C94.7083 26.9091 95.1629 26.8239 95.5455 26.6534C95.928 26.483 96.2235 26.2424 96.4318 25.9318C96.6402 25.6212 96.7462 25.2576 96.75 24.8409C96.7462 24.4015 96.6326 24.0133 96.4091 23.6761C96.1856 23.339 95.8807 23.0739 95.4943 22.8807C95.1117 22.6875 94.6742 22.5909 94.1818 22.5909C93.6856 22.5909 93.2424 22.6875 92.8523 22.8807C92.4659 23.0739 92.161 23.339 91.9375 23.6761C91.7178 24.0133 91.6098 24.4015 91.6136 24.8409C91.6098 25.2576 91.7102 25.6212 91.9148 25.9318C92.1231 26.2424 92.4205 26.483 92.8068 26.6534C93.1932 26.8239 93.6515 26.9091 94.1818 26.9091ZM94.1818 21.3864C94.5985 21.3864 94.9678 21.303 95.2898 21.1364C95.6155 20.9697 95.8712 20.7367 96.0568 20.4375C96.2424 20.1383 96.3371 19.7879 96.3409 19.3864C96.3371 18.9924 96.2443 18.6496 96.0625 18.358C95.8807 18.0625 95.6288 17.8352 95.3068 17.6761C94.9848 17.5133 94.6098 17.4318 94.1818 17.4318C93.7462 17.4318 93.3655 17.5133 93.0398 17.6761C92.714 17.8352 92.4621 18.0625 92.2841 18.358C92.1061 18.6496 92.0189 18.9924 92.0227 19.3864C92.0189 19.7879 92.108 20.1383 92.2898 20.4375C92.4754 20.7367 92.7311 20.9697 93.0568 21.1364C93.3826 21.303 93.7576 21.3864 94.1818 21.3864ZM104.837 19.2727H106.178V28.6364C106.178 29.1742 106.085 29.6402 105.899 30.0341C105.717 30.428 105.441 30.733 105.07 30.9489C104.702 31.1648 104.238 31.2727 103.678 31.2727C103.632 31.2727 103.587 31.2727 103.541 31.2727C103.496 31.2727 103.45 31.2727 103.405 31.2727V30.0227C103.45 30.0227 103.492 30.0227 103.53 30.0227C103.568 30.0227 103.609 30.0227 103.655 30.0227C104.064 30.0227 104.363 29.9015 104.553 29.6591C104.742 29.4205 104.837 29.0795 104.837 28.6364V19.2727ZM105.496 17.8182C105.234 17.8182 105.009 17.7292 104.82 17.5511C104.634 17.3731 104.541 17.1591 104.541 16.9091C104.541 16.6591 104.634 16.4451 104.82 16.267C105.009 16.089 105.234 16 105.496 16C105.757 16 105.981 16.089 106.166 16.267C106.356 16.4451 106.45 16.6591 106.45 16.9091C106.45 17.1591 106.356 17.3731 106.166 17.5511C105.981 17.7292 105.757 17.8182 105.496 17.8182ZM114.134 24.4318V19.2727H115.474V28H114.134V26.5227H114.043C113.838 26.9659 113.52 27.3428 113.088 27.6534C112.656 27.9602 112.111 28.1136 111.452 28.1136C110.906 28.1136 110.421 27.9943 109.997 27.7557C109.573 27.5133 109.24 27.1496 108.997 26.6648C108.755 26.1761 108.634 25.5606 108.634 24.8182V19.2727H109.974V24.7273C109.974 25.3636 110.152 25.8712 110.509 26.25C110.868 26.6288 111.327 26.8182 111.884 26.8182C112.217 26.8182 112.556 26.733 112.901 26.5625C113.249 26.392 113.541 26.1307 113.776 25.7784C114.014 25.4261 114.134 24.9773 114.134 24.4318ZM119.271 16.3636V28H117.93V16.3636H119.271ZM122.591 31.2727C122.364 31.2727 122.161 31.2538 121.983 31.2159C121.805 31.1818 121.682 31.1477 121.614 31.1136L121.955 29.9318C122.28 30.0152 122.568 30.0455 122.818 30.0227C123.068 30 123.29 29.8883 123.483 29.6875C123.68 29.4905 123.86 29.1705 124.023 28.7273L124.273 28.0455L121.045 19.2727H122.5L124.909 26.2273H125L127.409 19.2727H128.864L125.159 29.2727C124.992 29.7235 124.786 30.0966 124.54 30.392C124.294 30.6913 124.008 30.9129 123.682 31.0568C123.36 31.2008 122.996 31.2727 122.591 31.2727Z" fill="#323232"/>
</svg>
