<svg width="129" height="44" viewBox="0 0 129 44" fill="none" xmlns="http://www.w3.org/2000/svg">
<rect width="129" height="44" rx="16" fill="#E7EEFF"/>
<path d="M32.7925 19.5235C33.5826 20.3136 33.5826 21.5944 32.7925 22.3845C32.0025 23.1745 30.7216 23.1745 29.9316 22.3845C29.1415 21.5944 29.1415 20.3136 29.9316 19.5235C30.7216 18.7335 32.0025 18.7335 32.7925 19.5235" stroke="#155EEF" stroke-width="1.5" stroke-linecap="round" stroke-linejoin="round"/>
<path d="M26.2026 15.9124C27.4191 17.1288 27.4191 19.1011 26.2026 20.3176C24.9861 21.5341 23.0138 21.5341 21.7973 20.3176C20.5808 19.1012 20.5808 17.1289 21.7973 15.9124C23.0138 14.6959 24.9861 14.6959 26.2026 15.9124" stroke="#155EEF" stroke-width="1.5" stroke-linecap="round" stroke-linejoin="round"/>
<path d="M18.0685 19.5235C18.8585 20.3136 18.8585 21.5944 18.0685 22.3845C17.2784 23.1745 15.9975 23.1745 15.2075 22.3845C14.4175 21.5944 14.4175 20.3136 15.2075 19.5235C15.9975 18.7335 17.2784 18.7335 18.0685 19.5235" stroke="#155EEF" stroke-width="1.5" stroke-linecap="round" stroke-linejoin="round"/>
<path d="M35 29V27.904C35 26.523 33.881 25.404 32.5 25.404H31.699" stroke="#155EEF" stroke-width="1.5" stroke-linecap="round" stroke-linejoin="round"/>
<path d="M13 29V27.904C13 26.523 14.119 25.404 15.5 25.404H16.301" stroke="#155EEF" stroke-width="1.5" stroke-linecap="round" stroke-linejoin="round"/>
<path d="M29.339 29V27.399C29.339 25.466 27.772 23.899 25.839 23.899H22.16C20.227 23.899 18.66 25.466 18.66 27.399V29" stroke="#155EEF" stroke-width="1.5" stroke-linecap="round" stroke-linejoin="round"/>
<path d="M49.2045 28V26.9773L53.0455 22.7727C53.4962 22.2803 53.8674 21.8523 54.1591 21.4886C54.4508 21.1212 54.6667 20.7765 54.8068 20.4545C54.9508 20.1288 55.0227 19.7879 55.0227 19.4318C55.0227 19.0227 54.9242 18.6686 54.7273 18.3693C54.5341 18.0701 54.2689 17.839 53.9318 17.6761C53.5947 17.5133 53.2159 17.4318 52.7955 17.4318C52.3485 17.4318 51.9583 17.5246 51.625 17.7102C51.2955 17.892 51.0398 18.1477 50.858 18.4773C50.6799 18.8068 50.5909 19.1932 50.5909 19.6364H49.25C49.25 18.9545 49.4072 18.3561 49.7216 17.8409C50.036 17.3258 50.464 16.9242 51.0057 16.6364C51.5511 16.3485 52.1629 16.2045 52.8409 16.2045C53.5227 16.2045 54.1269 16.3485 54.6534 16.6364C55.1799 16.9242 55.5928 17.3125 55.892 17.8011C56.1913 18.2898 56.3409 18.8333 56.3409 19.4318C56.3409 19.8598 56.2633 20.2784 56.108 20.6875C55.9564 21.0928 55.6913 21.5455 55.3125 22.0455C54.9375 22.5417 54.4167 23.1477 53.75 23.8636L51.1364 26.6591V26.75H56.5455V28H49.2045ZM66.9375 31.4545C66.2898 31.4545 65.733 31.3712 65.267 31.2045C64.8011 31.0417 64.4129 30.8258 64.1023 30.5568C63.7955 30.2917 63.5511 30.0076 63.3693 29.7045L64.4375 28.9545C64.5587 29.1136 64.7121 29.2955 64.8977 29.5C65.0833 29.7083 65.3371 29.8883 65.6591 30.0398C65.9848 30.1951 66.411 30.2727 66.9375 30.2727C67.642 30.2727 68.2235 30.1023 68.6818 29.7614C69.1402 29.4205 69.3693 28.8864 69.3693 28.1591V26.3864H69.2557C69.1572 26.5455 69.017 26.7424 68.8352 26.9773C68.6572 27.2083 68.3996 27.4148 68.0625 27.5966C67.7292 27.7746 67.2784 27.8636 66.7102 27.8636C66.0057 27.8636 65.3731 27.697 64.8125 27.3636C64.2557 27.0303 63.8144 26.5455 63.4886 25.9091C63.1667 25.2727 63.0057 24.5 63.0057 23.5909C63.0057 22.697 63.1629 21.9186 63.4773 21.2557C63.7917 20.589 64.2292 20.0739 64.7898 19.7102C65.3504 19.3428 65.9981 19.1591 66.733 19.1591C67.3011 19.1591 67.7519 19.2538 68.0852 19.4432C68.4223 19.6288 68.6799 19.8409 68.858 20.0795C69.0398 20.3144 69.1799 20.5076 69.2784 20.6591H69.4148V19.2727H70.7102V28.25C70.7102 29 70.5398 29.6098 70.1989 30.0795C69.8617 30.553 69.4072 30.8996 68.8352 31.1193C68.267 31.3428 67.6345 31.4545 66.9375 31.4545ZM66.892 26.6591C67.4299 26.6591 67.8845 26.536 68.2557 26.2898C68.6269 26.0436 68.9091 25.6894 69.1023 25.2273C69.2955 24.7652 69.392 24.2121 69.392 23.5682C69.392 22.9394 69.2973 22.3845 69.108 21.9034C68.9186 21.4223 68.6383 21.0455 68.267 20.7727C67.8958 20.5 67.4375 20.3636 66.892 20.3636C66.3239 20.3636 65.8504 20.5076 65.4716 20.7955C65.0966 21.0833 64.8144 21.4697 64.625 21.9545C64.4394 22.4394 64.3466 22.9773 64.3466 23.5682C64.3466 24.1742 64.4413 24.7102 64.6307 25.1761C64.8239 25.6383 65.108 26.0019 65.483 26.267C65.8617 26.5284 66.3314 26.6591 66.892 26.6591ZM78.6648 24.4318V19.2727H80.0057V28H78.6648V26.5227H78.5739C78.3693 26.9659 78.0511 27.3428 77.6193 27.6534C77.1875 27.9602 76.642 28.1136 75.983 28.1136C75.4375 28.1136 74.9527 27.9943 74.5284 27.7557C74.1042 27.5133 73.7708 27.1496 73.5284 26.6648C73.286 26.1761 73.1648 25.5606 73.1648 24.8182V19.2727H74.5057V24.7273C74.5057 25.3636 74.6837 25.8712 75.0398 26.25C75.3996 26.6288 75.858 26.8182 76.4148 26.8182C76.7481 26.8182 77.0871 26.733 77.4318 26.5625C77.7803 26.392 78.072 26.1307 78.3068 25.7784C78.5455 25.4261 78.6648 24.9773 78.6648 24.4318ZM86.1207 28.1818C85.2798 28.1818 84.5545 27.9962 83.9446 27.625C83.3385 27.25 82.8707 26.7273 82.5412 26.0568C82.2154 25.3826 82.0526 24.5985 82.0526 23.7045C82.0526 22.8106 82.2154 22.0227 82.5412 21.3409C82.8707 20.6553 83.3291 20.1212 83.9162 19.7386C84.5071 19.3523 85.1965 19.1591 85.9844 19.1591C86.4389 19.1591 86.8878 19.2348 87.331 19.3864C87.7741 19.5379 88.1776 19.7841 88.5412 20.125C88.9048 20.4621 89.1946 20.9091 89.4105 21.4659C89.6264 22.0227 89.7344 22.7083 89.7344 23.5227V24.0909H83.0071V22.9318H88.3707C88.3707 22.4394 88.2723 22 88.0753 21.6136C87.8821 21.2273 87.6056 20.9223 87.2457 20.6989C86.8897 20.4754 86.4692 20.3636 85.9844 20.3636C85.4503 20.3636 84.9882 20.4962 84.598 20.7614C84.2116 21.0227 83.9143 21.3636 83.706 21.7841C83.4976 22.2045 83.3935 22.6553 83.3935 23.1364V23.9091C83.3935 24.5682 83.5071 25.1269 83.7344 25.5852C83.9654 26.0398 84.2855 26.3864 84.6946 26.625C85.1037 26.8598 85.5791 26.9773 86.1207 26.9773C86.473 26.9773 86.7912 26.928 87.0753 26.8295C87.3632 26.7273 87.6113 26.5758 87.8196 26.375C88.0279 26.1705 88.1889 25.9167 88.3026 25.6136L89.598 25.9773C89.4616 26.4167 89.2325 26.803 88.9105 27.1364C88.5885 27.4659 88.1908 27.7235 87.7173 27.9091C87.2438 28.0909 86.7116 28.1818 86.1207 28.1818ZM97.956 21.2273L96.7514 21.5682C96.6757 21.3674 96.5639 21.1723 96.4162 20.983C96.2723 20.7898 96.0753 20.6307 95.8253 20.5057C95.5753 20.3807 95.2552 20.3182 94.8651 20.3182C94.331 20.3182 93.8859 20.4413 93.5298 20.6875C93.1776 20.9299 93.0014 21.2386 93.0014 21.6136C93.0014 21.947 93.1226 22.2102 93.3651 22.4034C93.6075 22.5966 93.9863 22.7576 94.5014 22.8864L95.7969 23.2045C96.5772 23.3939 97.1586 23.6837 97.5412 24.0739C97.9238 24.4602 98.1151 24.9583 98.1151 25.5682C98.1151 26.0682 97.9711 26.5152 97.6832 26.9091C97.3991 27.303 97.0014 27.6136 96.4901 27.8409C95.9787 28.0682 95.384 28.1818 94.706 28.1818C93.8158 28.1818 93.0791 27.9886 92.4957 27.6023C91.9124 27.2159 91.5431 26.6515 91.3878 25.9091L92.6605 25.5909C92.7817 26.0606 93.0109 26.4129 93.348 26.6477C93.6889 26.8826 94.134 27 94.6832 27C95.3082 27 95.8045 26.8674 96.1719 26.6023C96.5431 26.3333 96.7287 26.0114 96.7287 25.6364C96.7287 25.3333 96.6226 25.0795 96.4105 24.875C96.1984 24.6667 95.8726 24.5114 95.4332 24.4091L93.9787 24.0682C93.1795 23.8788 92.5923 23.5852 92.2173 23.1875C91.8461 22.786 91.6605 22.2841 91.6605 21.6818C91.6605 21.1894 91.7988 20.7538 92.0753 20.375C92.3556 19.9962 92.7363 19.6989 93.2173 19.483C93.7022 19.267 94.2514 19.1591 94.8651 19.1591C95.7287 19.1591 96.4067 19.3485 96.8991 19.7273C97.3954 20.1061 97.7476 20.6061 97.956 21.2273ZM103.929 19.2727V20.4091H99.4062V19.2727H103.929ZM100.724 17.1818H102.065V25.5C102.065 25.8788 102.12 26.1629 102.23 26.3523C102.344 26.5379 102.488 26.6629 102.662 26.7273C102.84 26.7879 103.027 26.8182 103.224 26.8182C103.372 26.8182 103.493 26.8106 103.588 26.7955C103.683 26.7765 103.759 26.7614 103.815 26.75L104.088 27.9545C103.997 27.9886 103.87 28.0227 103.707 28.0568C103.545 28.0947 103.338 28.1136 103.088 28.1136C102.709 28.1136 102.338 28.0322 101.974 27.8693C101.615 27.7064 101.315 27.4583 101.077 27.125C100.842 26.7917 100.724 26.3712 100.724 25.8636V17.1818Z" fill="#323232"/>
</svg>
