<svg width="176" height="44" viewBox="0 0 176 44" fill="none" xmlns="http://www.w3.org/2000/svg">
<rect width="176" height="44" rx="16" fill="#E7EEFF"/>
<path d="M17.9975 23.1535C16.1597 23.9778 14.9962 25.1703 14.9962 26.5019C14.9962 28.9879 19.0269 31.0038 24 31.0038C28.973 31.0038 33.0037 28.9879 33.0037 26.5019C33.0037 25.1703 31.8402 23.9778 30.0025 23.1535" stroke="#155EEF" stroke-width="1.5" stroke-linecap="round" stroke-linejoin="round"/>
<path d="M27.6535 27.0021C26.5694 27.7075 25.2923 28.0572 24 28.0025C22.7078 28.0572 21.4306 27.7075 20.3465 27.0021" stroke="#155EEF" stroke-width="1.5" stroke-linecap="round" stroke-linejoin="round"/>
<path d="M26.2009 13.9096C27.0928 14.8014 27.3596 16.1427 26.877 17.3079C26.3943 18.4732 25.2573 19.233 23.996 19.233C22.7348 19.233 21.5977 18.4732 21.1151 17.3079C20.6324 16.1427 20.8992 14.8014 21.7911 13.9096C22.3758 13.3246 23.1689 12.9959 23.996 12.9959C24.8231 12.9959 25.6163 13.3246 26.2009 13.9096" stroke="#155EEF" stroke-width="1.5" stroke-linecap="round" stroke-linejoin="round"/>
<path d="M24 19.2308V25.0012" stroke="#155EEF" stroke-width="1.5" stroke-linecap="round" stroke-linejoin="round"/>
<path d="M55.7727 19.2727C55.7045 18.697 55.428 18.25 54.9432 17.9318C54.4583 17.6136 53.8636 17.4545 53.1591 17.4545C52.6439 17.4545 52.1932 17.5379 51.8068 17.7045C51.4242 17.8712 51.125 18.1004 50.9091 18.392C50.697 18.6837 50.5909 19.0152 50.5909 19.3864C50.5909 19.697 50.6648 19.964 50.8125 20.1875C50.964 20.4072 51.1572 20.5909 51.392 20.7386C51.6269 20.8826 51.8731 21.0019 52.1307 21.0966C52.3883 21.1875 52.625 21.2614 52.8409 21.3182L54.0227 21.6364C54.3258 21.7159 54.6629 21.8258 55.0341 21.9659C55.4091 22.1061 55.767 22.2973 56.108 22.5398C56.4527 22.7784 56.7367 23.0852 56.9602 23.4602C57.1837 23.8352 57.2955 24.2955 57.2955 24.8409C57.2955 25.4697 57.1307 26.0379 56.8011 26.5455C56.4754 27.053 55.9981 27.4564 55.3693 27.7557C54.7443 28.0549 53.9848 28.2045 53.0909 28.2045C52.2576 28.2045 51.536 28.0701 50.9261 27.8011C50.3201 27.5322 49.8428 27.1572 49.4943 26.6761C49.1496 26.1951 48.9545 25.6364 48.9091 25H50.3636C50.4015 25.4394 50.5492 25.803 50.8068 26.0909C51.0682 26.375 51.3977 26.5871 51.7955 26.7273C52.197 26.8636 52.6288 26.9318 53.0909 26.9318C53.6288 26.9318 54.1117 26.8447 54.5398 26.6705C54.9678 26.4924 55.3068 26.2462 55.5568 25.9318C55.8068 25.6136 55.9318 25.2424 55.9318 24.8182C55.9318 24.4318 55.8239 24.1174 55.608 23.875C55.392 23.6326 55.108 23.4356 54.7557 23.2841C54.4034 23.1326 54.0227 23 53.6136 22.8864L52.1818 22.4773C51.2727 22.2159 50.553 21.8428 50.0227 21.358C49.4924 20.8731 49.2273 20.2386 49.2273 19.4545C49.2273 18.803 49.4034 18.2348 49.7557 17.75C50.1117 17.2614 50.589 16.8826 51.1875 16.6136C51.7898 16.3409 52.4621 16.2045 53.2045 16.2045C53.9545 16.2045 54.6212 16.339 55.2045 16.608C55.7879 16.8731 56.25 17.2367 56.5909 17.6989C56.9356 18.161 57.1174 18.6856 57.1364 19.2727H55.7727ZM59.4304 31.2727V19.2727H60.7259V20.6591H60.8849C60.9834 20.5076 61.1198 20.3144 61.294 20.0795C61.4721 19.8409 61.7259 19.6288 62.0554 19.4432C62.3887 19.2538 62.8395 19.1591 63.4077 19.1591C64.1425 19.1591 64.7902 19.3428 65.3509 19.7102C65.9115 20.0777 66.349 20.5985 66.6634 21.2727C66.9777 21.947 67.1349 22.7424 67.1349 23.6591C67.1349 24.5833 66.9777 25.3845 66.6634 26.0625C66.349 26.7367 65.9134 27.2595 65.3565 27.6307C64.7997 27.9981 64.1577 28.1818 63.4304 28.1818C62.8698 28.1818 62.4209 28.089 62.0838 27.9034C61.7467 27.714 61.4872 27.5 61.3054 27.2614C61.1236 27.0189 60.9834 26.8182 60.8849 26.6591H60.7713V31.2727H59.4304ZM60.7486 23.6364C60.7486 24.2955 60.8452 24.8769 61.0384 25.3807C61.2315 25.8807 61.5137 26.2727 61.8849 26.5568C62.2562 26.8371 62.7107 26.9773 63.2486 26.9773C63.8092 26.9773 64.277 26.8295 64.652 26.5341C65.0308 26.2348 65.3149 25.8333 65.5043 25.3295C65.6974 24.822 65.794 24.2576 65.794 23.6364C65.794 23.0227 65.6993 22.4697 65.5099 21.9773C65.3243 21.4811 65.0421 21.089 64.6634 20.8011C64.2884 20.5095 63.8168 20.3636 63.2486 20.3636C62.7031 20.3636 62.2448 20.5019 61.8736 20.7784C61.5024 21.0511 61.2221 21.4337 61.0327 21.9261C60.8433 22.4148 60.7486 22.9848 60.7486 23.6364ZM71.7486 28.2045C71.1955 28.2045 70.6937 28.1004 70.2429 27.892C69.7921 27.6799 69.4342 27.375 69.169 26.9773C68.9039 26.5758 68.7713 26.0909 68.7713 25.5227C68.7713 25.0227 68.8698 24.6174 69.0668 24.3068C69.2637 23.9924 69.527 23.7462 69.8565 23.5682C70.1861 23.3902 70.5497 23.2576 70.9474 23.1705C71.349 23.0795 71.7524 23.0076 72.1577 22.9545C72.688 22.8864 73.1179 22.8352 73.4474 22.8011C73.7808 22.7633 74.0232 22.7008 74.1747 22.6136C74.33 22.5265 74.4077 22.375 74.4077 22.1591V22.1136C74.4077 21.553 74.2543 21.1174 73.9474 20.8068C73.6444 20.4962 73.1842 20.3409 72.5668 20.3409C71.9266 20.3409 71.4247 20.4811 71.0611 20.7614C70.6974 21.0417 70.4418 21.3409 70.294 21.6591L69.0213 21.2045C69.2486 20.6742 69.5516 20.2614 69.9304 19.9659C70.313 19.6667 70.7296 19.4583 71.1804 19.3409C71.6349 19.2197 72.0819 19.1591 72.5213 19.1591C72.8016 19.1591 73.1236 19.1932 73.4872 19.2614C73.8546 19.3258 74.2088 19.4602 74.5497 19.6648C74.8944 19.8693 75.1804 20.178 75.4077 20.5909C75.6349 21.0038 75.7486 21.5568 75.7486 22.25V28H74.4077V26.8182H74.3395C74.2486 27.0076 74.0971 27.2102 73.8849 27.4261C73.6728 27.642 73.3906 27.8258 73.0384 27.9773C72.6861 28.1288 72.2562 28.2045 71.7486 28.2045ZM71.9531 27C72.4834 27 72.9304 26.8958 73.294 26.6875C73.6615 26.4792 73.938 26.2102 74.1236 25.8807C74.313 25.5511 74.4077 25.2045 74.4077 24.8409V23.6136C74.3509 23.6818 74.2259 23.7443 74.0327 23.8011C73.8433 23.8542 73.6236 23.9015 73.3736 23.9432C73.1274 23.9811 72.8868 24.0152 72.652 24.0455C72.4209 24.072 72.2334 24.0947 72.0895 24.1136C71.741 24.1591 71.4152 24.233 71.1122 24.3352C70.813 24.4337 70.5705 24.5833 70.3849 24.7841C70.2031 24.9811 70.1122 25.25 70.1122 25.5909C70.1122 26.0568 70.2846 26.4091 70.6293 26.6477C70.9777 26.8826 71.419 27 71.9531 27ZM78.196 28V19.2727H79.5369V28H78.196ZM78.8778 17.8182C78.6165 17.8182 78.3911 17.7292 78.2017 17.5511C78.0161 17.3731 77.9233 17.1591 77.9233 16.9091C77.9233 16.6591 78.0161 16.4451 78.2017 16.267C78.3911 16.089 78.6165 16 78.8778 16C79.1392 16 79.3627 16.089 79.5483 16.267C79.7377 16.4451 79.8324 16.6591 79.8324 16.9091C79.8324 17.1591 79.7377 17.3731 79.5483 17.5511C79.3627 17.7292 79.1392 17.8182 78.8778 17.8182ZM83.3338 22.75V28H81.9929V19.2727H83.2884V20.6364H83.402C83.6065 20.1932 83.9171 19.8371 84.3338 19.5682C84.7505 19.2955 85.2884 19.1591 85.9474 19.1591C86.5384 19.1591 87.0554 19.2803 87.4986 19.5227C87.9418 19.7614 88.2865 20.125 88.5327 20.6136C88.7789 21.0985 88.902 21.7121 88.902 22.4545V28H87.5611V22.5455C87.5611 21.8598 87.383 21.3258 87.027 20.9432C86.6709 20.5568 86.1823 20.3636 85.5611 20.3636C85.133 20.3636 84.7505 20.4564 84.4134 20.642C84.08 20.8277 83.8168 21.0985 83.6236 21.4545C83.4304 21.8106 83.3338 22.2424 83.3338 22.75ZM93.3523 26.4091L93.2614 27.0227C93.197 27.4545 93.0985 27.9167 92.9659 28.4091C92.8371 28.9015 92.7027 29.3655 92.5625 29.8011C92.4223 30.2367 92.3068 30.5833 92.2159 30.8409H91.1932C91.2424 30.5985 91.3068 30.2784 91.3864 29.8807C91.4659 29.483 91.5455 29.0379 91.625 28.5455C91.7083 28.0568 91.7765 27.5568 91.8295 27.0455L91.8977 26.4091H93.3523ZM100.518 16.3636H102.2L106.155 26.0227H106.291L110.246 16.3636H111.928V28H110.609V19.1591H110.496L106.859 28H105.587L101.95 19.1591H101.837V28H100.518V16.3636ZM117.139 28.2045C116.586 28.2045 116.084 28.1004 115.634 27.892C115.183 27.6799 114.825 27.375 114.56 26.9773C114.295 26.5758 114.162 26.0909 114.162 25.5227C114.162 25.0227 114.26 24.6174 114.457 24.3068C114.654 23.9924 114.918 23.7462 115.247 23.5682C115.577 23.3902 115.94 23.2576 116.338 23.1705C116.74 23.0795 117.143 23.0076 117.548 22.9545C118.079 22.8864 118.509 22.8352 118.838 22.8011C119.171 22.7633 119.414 22.7008 119.565 22.6136C119.721 22.5265 119.798 22.375 119.798 22.1591V22.1136C119.798 21.553 119.645 21.1174 119.338 20.8068C119.035 20.4962 118.575 20.3409 117.957 20.3409C117.317 20.3409 116.815 20.4811 116.452 20.7614C116.088 21.0417 115.832 21.3409 115.685 21.6591L114.412 21.2045C114.639 20.6742 114.942 20.2614 115.321 19.9659C115.704 19.6667 116.12 19.4583 116.571 19.3409C117.026 19.2197 117.473 19.1591 117.912 19.1591C118.192 19.1591 118.514 19.1932 118.878 19.2614C119.245 19.3258 119.599 19.4602 119.94 19.6648C120.285 19.8693 120.571 20.178 120.798 20.5909C121.026 21.0038 121.139 21.5568 121.139 22.25V28H119.798V26.8182H119.73C119.639 27.0076 119.488 27.2102 119.276 27.4261C119.063 27.642 118.781 27.8258 118.429 27.9773C118.077 28.1288 117.647 28.2045 117.139 28.2045ZM117.344 27C117.874 27 118.321 26.8958 118.685 26.6875C119.052 26.4792 119.329 26.2102 119.514 25.8807C119.704 25.5511 119.798 25.2045 119.798 24.8409V23.6136C119.741 23.6818 119.616 23.7443 119.423 23.8011C119.234 23.8542 119.014 23.9015 118.764 23.9432C118.518 23.9811 118.277 24.0152 118.043 24.0455C117.812 24.072 117.624 24.0947 117.48 24.1136C117.132 24.1591 116.806 24.233 116.503 24.3352C116.204 24.4337 115.961 24.5833 115.776 24.7841C115.594 24.9811 115.503 25.25 115.503 25.5909C115.503 26.0568 115.675 26.4091 116.02 26.6477C116.368 26.8826 116.81 27 117.344 27ZM126.882 28.1818C126.155 28.1818 125.513 27.9981 124.956 27.6307C124.399 27.2595 123.964 26.7367 123.649 26.0625C123.335 25.3845 123.178 24.5833 123.178 23.6591C123.178 22.7424 123.335 21.947 123.649 21.2727C123.964 20.5985 124.401 20.0777 124.962 19.7102C125.522 19.3428 126.17 19.1591 126.905 19.1591C127.473 19.1591 127.922 19.2538 128.251 19.4432C128.585 19.6288 128.839 19.8409 129.013 20.0795C129.191 20.3144 129.329 20.5076 129.428 20.6591H129.541V16.3636H130.882V28H129.587V26.6591H129.428C129.329 26.8182 129.189 27.0189 129.007 27.2614C128.825 27.5 128.566 27.714 128.229 27.9034C127.892 28.089 127.443 28.1818 126.882 28.1818ZM127.064 26.9773C127.602 26.9773 128.056 26.8371 128.428 26.5568C128.799 26.2727 129.081 25.8807 129.274 25.3807C129.467 24.8769 129.564 24.2955 129.564 23.6364C129.564 22.9848 129.469 22.4148 129.28 21.9261C129.09 21.4337 128.81 21.0511 128.439 20.7784C128.068 20.5019 127.609 20.3636 127.064 20.3636C126.496 20.3636 126.022 20.5095 125.643 20.8011C125.268 21.089 124.986 21.4811 124.797 21.9773C124.611 22.4697 124.518 23.0227 124.518 23.6364C124.518 24.2576 124.613 24.822 124.803 25.3295C124.996 25.8333 125.28 26.2348 125.655 26.5341C126.034 26.8295 126.503 26.9773 127.064 26.9773ZM133.524 28V19.2727H134.82V20.5909H134.911C135.07 20.1591 135.357 19.8087 135.774 19.5398C136.191 19.2708 136.661 19.1364 137.183 19.1364C137.282 19.1364 137.405 19.1383 137.553 19.142C137.7 19.1458 137.812 19.1515 137.888 19.1591V20.5227C137.842 20.5114 137.738 20.4943 137.575 20.4716C137.416 20.4451 137.248 20.4318 137.07 20.4318C136.645 20.4318 136.267 20.5208 135.933 20.6989C135.604 20.8731 135.342 21.1155 135.149 21.4261C134.96 21.733 134.865 22.0833 134.865 22.4773V28H133.524ZM139.477 28V19.2727H140.818V28H139.477ZM140.159 17.8182C139.898 17.8182 139.672 17.7292 139.483 17.5511C139.297 17.3731 139.205 17.1591 139.205 16.9091C139.205 16.6591 139.297 16.4451 139.483 16.267C139.672 16.089 139.898 16 140.159 16C140.42 16 140.644 16.089 140.83 16.267C141.019 16.4451 141.114 16.6591 141.114 16.9091C141.114 17.1591 141.019 17.3731 140.83 17.5511C140.644 17.7292 140.42 17.8182 140.159 17.8182ZM146.57 28.1818C145.842 28.1818 145.2 27.9981 144.643 27.6307C144.087 27.2595 143.651 26.7367 143.337 26.0625C143.022 25.3845 142.865 24.5833 142.865 23.6591C142.865 22.7424 143.022 21.947 143.337 21.2727C143.651 20.5985 144.089 20.0777 144.649 19.7102C145.21 19.3428 145.857 19.1591 146.592 19.1591C147.161 19.1591 147.609 19.2538 147.939 19.4432C148.272 19.6288 148.526 19.8409 148.7 20.0795C148.878 20.3144 149.017 20.5076 149.115 20.6591H149.229V16.3636H150.57V28H149.274V26.6591H149.115C149.017 26.8182 148.876 27.0189 148.695 27.2614C148.513 27.5 148.253 27.714 147.916 27.9034C147.579 28.089 147.13 28.1818 146.57 28.1818ZM146.751 26.9773C147.289 26.9773 147.744 26.8371 148.115 26.5568C148.486 26.2727 148.768 25.8807 148.962 25.3807C149.155 24.8769 149.251 24.2955 149.251 23.6364C149.251 22.9848 149.157 22.4148 148.967 21.9261C148.778 21.4337 148.498 21.0511 148.126 20.7784C147.755 20.5019 147.297 20.3636 146.751 20.3636C146.183 20.3636 145.71 20.5095 145.331 20.8011C144.956 21.089 144.674 21.4811 144.484 21.9773C144.299 22.4697 144.206 23.0227 144.206 23.6364C144.206 24.2576 144.301 24.822 144.49 25.3295C144.683 25.8333 144.967 26.2348 145.342 26.5341C145.721 26.8295 146.191 26.9773 146.751 26.9773Z" fill="#323232"/>
</svg>
